<svg width="211" height="57" viewBox="0 0 211 57" fill="none" xmlns="http://www.w3.org/2000/svg">
<path d="M82.6044 34.2038C82.6044 35.1068 82.4875 35.922 82.2538 36.6495C82.02 37.3719 81.7126 38.0091 81.3314 38.5609C80.9503 39.1128 80.5031 39.5819 79.9899 39.9682C79.4817 40.3595 78.9532 40.6781 78.4043 40.9239C77.8555 41.1697 77.2991 41.3528 76.735 41.4732C76.1658 41.5886 75.6322 41.6463 75.1342 41.6463H57.2134V37.0634H75.1342C76.0286 37.0634 76.7223 36.8025 77.2152 36.2808C77.7081 35.764 77.9546 35.0717 77.9546 34.2038C77.9546 33.7823 77.8885 33.3935 77.7564 33.0373C77.6294 32.6862 77.4439 32.3801 77.2 32.1192C76.956 31.8634 76.6562 31.6652 76.3005 31.5247C75.9499 31.3843 75.5611 31.314 75.1342 31.314H64.4473C63.7003 31.314 62.8923 31.1811 62.0233 30.9152C61.1543 30.6493 60.3463 30.2229 59.5993 29.6359C58.8574 29.0489 58.2374 28.2788 57.7394 27.3256C57.2465 26.3724 57 25.2085 57 23.8339C57 22.4592 57.2465 21.2978 57.7394 20.3496C58.2374 19.4014 58.8574 18.6314 59.5993 18.0394C60.3463 17.4474 61.1543 17.0184 62.0233 16.7525C62.8923 16.4866 63.7003 16.3537 64.4473 16.3537H80.2643V20.9366H64.4473C63.5682 20.9366 62.8821 21.2025 62.3892 21.7343C61.8912 22.2611 61.6422 22.9609 61.6422 23.8339C61.6422 24.7168 61.8912 25.4142 62.3892 25.9259C62.8821 26.4326 63.5682 26.686 64.4473 26.686H75.1342H75.1724C75.6704 26.701 76.1989 26.7687 76.7579 26.8891C77.3169 27.0146 77.8733 27.2077 78.4272 27.4686C78.9811 27.7245 79.5096 28.0506 80.0127 28.4469C80.5107 28.8382 80.9528 29.3098 81.3391 29.8617C81.7304 30.4185 82.0378 31.0532 82.2614 31.7656C82.4901 32.483 82.6044 33.2957 82.6044 34.2038ZM91.1418 16.3537V26.686H107.454V16.3537H112.096V41.6463H107.454V31.314H91.1418V41.6463H86.4996V16.3537H91.1418ZM122.212 16.3537V41.6463H117.562V16.3537H122.212ZM153.205 26.9343V31.0657C153.205 32.6059 152.933 34.0232 152.39 35.3175C151.851 36.6069 151.104 37.7206 150.149 38.6588C149.198 39.5919 148.068 40.3244 146.756 40.8562C145.445 41.3829 144.022 41.6463 142.488 41.6463H129.949C129.613 41.6463 129.303 41.5886 129.019 41.4732C128.729 41.3528 128.48 41.1898 128.272 40.9841C128.063 40.7784 127.901 40.5351 127.784 40.2541C127.667 39.9732 127.608 39.6672 127.608 39.336V18.664C127.608 18.3479 127.667 18.0494 127.784 17.7685C127.901 17.4825 128.063 17.2342 128.272 17.0234C128.48 16.8127 128.729 16.6472 129.019 16.5268C129.303 16.4114 129.613 16.3537 129.949 16.3537H142.488C144.022 16.3537 145.445 16.6196 146.756 17.1514C148.068 17.6781 149.198 18.4081 150.149 19.3412C151.104 20.2794 151.851 21.3982 152.39 22.6975C152.933 23.9969 153.205 25.4092 153.205 26.9343ZM148.563 31.0657V26.9343C148.563 26.0413 148.416 25.2261 148.121 24.4886C147.831 23.7461 147.417 23.1139 146.878 22.5922C146.345 22.0654 145.705 21.659 144.958 21.3731C144.216 21.0821 143.392 20.9366 142.488 20.9366H132.251V37.0634H142.488C143.392 37.0634 144.216 36.9179 144.958 36.6269C145.705 36.341 146.345 35.9346 146.878 35.4078C147.417 34.8861 147.831 34.2589 148.121 33.5265C148.416 32.789 148.563 31.9687 148.563 31.0657ZM178.825 26.686V31.314H164.159V26.686H178.825ZM180.913 37.0634V41.6463H164.159C163.514 41.6463 162.81 41.5334 162.047 41.3077C161.285 41.0869 160.581 40.7207 159.936 40.209C159.286 39.6973 158.742 39.0325 158.305 38.2148C157.873 37.397 157.657 36.3961 157.657 35.2122V18.664C157.657 18.3479 157.715 18.0494 157.832 17.7685C157.954 17.4825 158.119 17.2342 158.328 17.0234C158.536 16.8127 158.782 16.6472 159.067 16.5268C159.352 16.4114 159.662 16.3537 159.997 16.3537H180.913V20.9366H162.299V35.2122C162.299 35.8092 162.459 36.2657 162.779 36.5818C163.104 36.9028 163.577 37.0634 164.197 37.0634H180.913ZM211 16.3537V39.6897C211 40.0158 210.939 40.3219 210.817 40.6078C210.69 40.8888 210.522 41.1321 210.314 41.3378C210.106 41.5435 209.859 41.704 209.575 41.8194C209.285 41.9398 208.98 42 208.66 42C208.375 42 208.086 41.9473 207.791 41.842C207.501 41.7366 207.242 41.566 207.013 41.3302L190.045 23.8339V41.6463H185.403V18.3103C185.403 17.8387 185.535 17.4123 185.8 17.031C186.069 16.6497 186.412 16.3662 186.829 16.1806C187.271 16 187.723 15.9548 188.185 16.0452C188.653 16.1355 189.052 16.3512 189.382 16.6923L206.358 34.1661V16.3537H211Z" fill="#5928B1"/>
<path d="M35.7376 12.3445C30.9734 13.6911 23.9435 16.5074 17.5042 22.2802C11.0329 28.3224 15.4261 33.711 15.4716 33.7645C15.4716 33.7645 13.1 29.4253 18.836 24.079C18.9087 24.0159 26.2308 17.7424 36.8796 14.7331C38.2374 14.3493 39.61 14.0299 40.9593 13.7838L41.053 13.7668L42.7674 11.0103L42.3466 11.0398C42.3199 11.042 39.6444 11.2403 35.7376 12.3445Z" fill="#5928B1"/>
<path d="M43.066 4.61919C41.9691 3.70326 40.8734 2.97844 40.8625 2.97121L40.7963 2.92847L40.7185 2.93758C40.6891 2.94135 37.733 3.30219 33.6618 4.45292C26.3776 6.51108 16.5814 10.7324 11.2769 19.1483C8.7573 22.9714 10.7852 27.5457 10.7852 27.5457L10.7241 26.3814C10.7175 26.2579 10.3694 13.9253 35.8508 6.72325C38.0813 6.09272 40.4768 5.51186 42.9719 4.99512L43.4087 4.90491L43.066 4.61919Z" fill="#764BC4"/>
<path d="M44.6066 6.22949C44.5737 6.23295 41.2216 6.58688 36.5514 7.90639C31.6088 9.30354 24.4118 12.0127 18.1973 16.9827C14.5328 19.8068 12.2136 23.2141 11.8339 26.3312C11.6476 27.8525 13.4447 31.0815 13.4447 31.0815L13.0668 29.9345C13.0496 29.8824 11.4438 24.6581 19.5815 18.5964C24.1412 15.1992 28.8932 12.8742 34.5348 11.28C37.4432 10.458 40.23 9.91803 43.3106 9.34692L43.4191 9.3268L43.4662 9.22716C43.6988 8.73211 44.8086 6.56424 44.8202 6.54256L45.0002 6.18958L44.6066 6.22949Z" fill="#764BC4"/>
<path d="M8.99134 22.0907C9.29834 17.1958 13.0349 12.6731 20.1058 8.64379C23.8321 6.33574 27.9974 4.52243 32.4856 3.25384C36.2922 2.17792 39.5098 1.85669 39.5098 1.85669L36.9222 0C36.8983 0.00282888 34.5132 0.293575 31.1049 1.25696C9.25005 7.43366 6.54166 18.0759 6.78343 22.3538C7.20676 29.8123 16.0597 35.1164 16.0597 35.1164C16.0597 35.1164 8.53446 29.3842 8.99134 22.0907Z" fill="#BBA5E1"/>
<path d="M9.26244 44.6555C14.0266 43.3089 21.0565 40.4926 27.4958 34.7198C33.9671 28.6776 29.5739 23.289 29.5284 23.2355C29.5284 23.2355 31.9 27.5747 26.164 32.921C26.0913 32.9841 18.7692 39.2576 8.12038 42.2669C6.76258 42.6507 5.39005 42.9701 4.04072 43.2162L3.94695 43.2332L2.23262 45.9897L2.65344 45.9602C2.6801 45.958 5.35555 45.7597 9.26244 44.6555Z" fill="#5928B1"/>
<path d="M1.934 52.3808C3.0309 53.2967 4.12655 54.0216 4.13752 54.0288L4.20369 54.0715L4.28145 54.0624C4.31093 54.0586 7.26704 53.6978 11.3382 52.5471C18.6224 50.4889 28.4186 46.2676 33.7231 37.8517C36.2427 34.0286 34.2148 29.4543 34.2148 29.4543L34.2759 30.6186C34.2825 30.7421 34.6306 43.0747 9.14915 50.2768C6.91866 50.9073 4.52323 51.4881 2.02808 52.0049L1.59126 52.0951L1.934 52.3808Z" fill="#764BC4"/>
<path d="M0.393368 50.7705C0.426292 50.767 3.77845 50.4131 8.44859 49.0936C13.3912 47.6965 20.5882 44.9873 26.8027 40.0173C30.4672 37.1932 32.7864 33.7859 33.1661 30.6688C33.3524 29.1475 31.5553 25.9185 31.5553 25.9185L31.9332 27.0655C31.9504 27.1176 33.5562 32.3419 25.4185 38.4036C20.8588 41.8008 16.1068 44.1258 10.4652 45.72C7.55677 46.542 4.76999 47.082 1.68939 47.6531L1.58089 47.6732L1.53385 47.7728C1.30118 48.2679 0.191422 50.4358 0.179817 50.4574L-0.000175476 50.8104L0.393368 50.7705Z" fill="#764BC4"/>
<path d="M36.0087 34.9093C35.7017 39.8042 31.9651 44.3269 24.8942 48.3562C21.1679 50.6643 17.0026 52.4776 12.5144 53.7462C8.70783 54.8221 5.4902 55.1433 5.4902 55.1433L8.07785 57C8.10168 56.9972 10.4868 56.7064 13.8951 55.743C35.75 49.5663 38.4583 38.9241 38.2166 34.6462C37.7932 27.1877 28.9403 21.8836 28.9403 21.8836C28.9403 21.8836 36.4655 27.6158 36.0087 34.9093Z" fill="#BBA5E1"/>
</svg>
