<svg aria-hidden="true" viewBox="0 0 231.53 53.15" style="position: absolute; width: 0; height: 0; overflow: hidden;" version="1.1" xmlns="http://www.w3.org/2000/svg" xmlns:xlink="http://www.w3.org/1999/xlink">
   <defs>
        <style>
          .cls-1 {
            fill: url(#New_Gradient_Swatch_1);
          }

          .cls-2 {
            fill: url(#New_Gradient_Swatch_1-2);
          }

          .cls-3 {
            fill: url(#New_Gradient_Swatch_1-3);
          }

          .cls-4 {
            fill: url(#New_Gradient_Swatch_1-4);
          }

          .cls-5 {
            fill: url(#New_Gradient_Swatch_1-5);
          }

          .cls-6 {
            fill: url(#New_Gradient_Swatch_1-6);
          }

          .cls-7 {
            fill: url(#New_Gradient_Swatch_1-7);
          }

          .cls-8 {
            fill: url(#New_Gradient_Swatch_1-8);
          }

          .cls-9 {
            fill: url(#New_Gradient_Swatch_1-9);
          }

          .cls-10 {
            fill: url(#New_Gradient_Swatch_1-10);
          }

          .cls-11 {
            fill: url(#New_Gradient_Swatch_1-11);
          }
        </style>
        <linearGradient id="New_Gradient_Swatch_1" x1="-5.34" y1="56.99" x2="222.97" y2="4.74" gradientUnits="userSpaceOnUse">
          <stop offset="0" stop-color="#e6007a"></stop>
          <stop offset="0.21" stop-color="#703ac2"></stop>
          <stop offset="0.46" stop-color="#0070eb"></stop>
          <stop offset="0.77" stop-color="#0297fb"></stop>
          <stop offset="1" stop-color="#0ae2ff"></stop>
        </linearGradient>
        <linearGradient id="New_Gradient_Swatch_1-2" x1="-11.99" y1="27.96" x2="216.32" y2="-24.29" xlink:href="#New_Gradient_Swatch_1"></linearGradient>
        <linearGradient id="New_Gradient_Swatch_1-3" x1="-9.45" y1="39.04" x2="218.86" y2="-13.21" xlink:href="#New_Gradient_Swatch_1"></linearGradient>
        <linearGradient id="New_Gradient_Swatch_1-4" x1="-10.93" y1="32.56" x2="217.38" y2="-19.69" xlink:href="#New_Gradient_Swatch_1"></linearGradient>
        <linearGradient id="New_Gradient_Swatch_1-5" x1="-8.06" y1="45.12" x2="220.25" y2="-7.13" xlink:href="#New_Gradient_Swatch_1"></linearGradient>
        <linearGradient id="New_Gradient_Swatch_1-6" x1="-10.55" y1="34.22" x2="217.76" y2="-18.02" xlink:href="#New_Gradient_Swatch_1"></linearGradient>
        <linearGradient id="New_Gradient_Swatch_1-7" x1="-4.63" y1="60.11" x2="223.68" y2="7.86" xlink:href="#New_Gradient_Swatch_1"></linearGradient>
        <linearGradient id="New_Gradient_Swatch_1-8" x1="-4.29" y1="61.59" x2="224.02" y2="9.34" xlink:href="#New_Gradient_Swatch_1"></linearGradient>
        <linearGradient id="New_Gradient_Swatch_1-9" x1="-2.8" y1="68.09" x2="225.51" y2="15.84" xlink:href="#New_Gradient_Swatch_1"></linearGradient>
        <linearGradient id="New_Gradient_Swatch_1-10" x1="-0.85" y1="76.62" x2="227.44" y2="24.37" xlink:href="#New_Gradient_Swatch_1"></linearGradient>
        <linearGradient id="New_Gradient_Swatch_1-11" x1="-1.95" y1="71.81" x2="226.36" y2="19.56" xlink:href="#New_Gradient_Swatch_1"></linearGradient>
      </defs>
      <polygon class="cls-1" points="158.85 9.8 151.34 30.74 151.39 30.74 158.9 9.92 158.85 9.8"></polygon>
      <polygon class="cls-2" points="25.37 9.8 17.85 30.74 17.88 30.74 25.4 9.88 25.37 9.8"></polygon>
      <polygon class="cls-3" points="27.25 15.03 32.88 30.74 21.58 30.74 18.73 38.66 35.77 38.66 40.6 52.08 51.41 52.08 31.7 2.66 27.25 15.03"></polygon>
      <polygon class="cls-4" points="17.85 30.74 25.37 9.8 25.4 9.88 28.57 1.07 20.27 1.07 0 52.08 10.18 52.08 17.88 30.74 17.85 30.74"></polygon>
      <path class="cls-5" d="M84.16,25.8a47.05,47.05,0,0,0-9.8-4.06,43.28,43.28,0,0,1-5.47-2.11,6.53,6.53,0,0,1-2.75-2.21,5.4,5.4,0,0,1-.77-2.92,5.28,5.28,0,0,1,2.28-4.57A10.93,10.93,0,0,1,74,8.32a26.51,26.51,0,0,1,7,1,24.83,24.83,0,0,1,6.47,2.75l1.41-8.25a25.26,25.26,0,0,0-7-2.79,33.68,33.68,0,0,0-8.22-1A23.7,23.7,0,0,0,64,1.81,14.5,14.5,0,0,0,57.68,7a13.9,13.9,0,0,0-2.25,7.92,14.29,14.29,0,0,0,1.51,6.74,13.12,13.12,0,0,0,4.94,4.94,39.35,39.35,0,0,0,9,3.75,44.07,44.07,0,0,1,6.24,2.29A7.53,7.53,0,0,1,80.2,35a5.49,5.49,0,0,1,.87,3.12,5.66,5.66,0,0,1-2.58,4.93,12.46,12.46,0,0,1-7.15,1.78,30,30,0,0,1-8.29-1.24A31.3,31.3,0,0,1,55.5,40.4l-.94,8.52a19.24,19.24,0,0,0,4.7,2.22,41.31,41.31,0,0,0,12.55,2Q80.87,53.15,86,49T91.2,37.58a13.14,13.14,0,0,0-1.67-6.74A14.77,14.77,0,0,0,84.16,25.8Z"></path>
      <rect class="cls-6" x="94.56" y="1.07" width="43.15" height="8.32"></rect>
      <rect class="cls-7" x="111" y="12.88" width="10.27" height="39.2"></rect>
      <polygon class="cls-8" points="151.34 30.74 158.85 9.8 158.9 9.92 162.09 1.07 153.75 1.07 133.49 52.08 143.69 52.08 148.52 38.66 148.54 38.66 151.39 30.74 151.34 30.74"></polygon>
      <polygon class="cls-9" points="160.75 15.07 166.37 30.74 155.1 30.74 152.24 38.66 169.25 38.66 174.09 52.08 184.89 52.08 165.21 2.7 160.75 15.07"></polygon>
      <path class="cls-10" d="M218.11,31.41a17.46,17.46,0,0,0,6-5.61,14.42,14.42,0,0,0,2.35-8.22,16.39,16.39,0,0,0-2.28-8.79,15,15,0,0,0-6.51-5.7,23.13,23.13,0,0,0-10.07-2h-3.56V8.79h2.22q10.2,0,10.2,8.73T206,26.24h-1.88V34h5.24l10.74,18.12h11.47Z"></path>
      <rect class="cls-11" x="190.86" y="1.07" width="9.73" height="51"></rect>
</svg>